PathFileType	4	(X/Y/Z)	Run_400 02
DataRate	CameraRate	NumFrames	NumMarkers	Units	OrigDataRate	OrigDataStartFrame	OrigNumFrames
100	100	4	45	mm	100	68	137
Frame#	Time	LASI			RASI			LPSI			RPSI			RTH1			RTH2			RTH3			LTH1			LTH2			LTH3			RTB1			RTB2			RTB3			RLMAL			RMMAL			LTB1			LTB2			LTB3			RCAL			RTOE			RMT5			LCAL			LTOE			LMT5			LACR			RACR			CLAV			C7			LPSH			RUA1			RUA2			RUA3			RLEL			RMEL			LUA1			LUA2			LUA3			LLEL			LMEL			RFAsuperior			RFAradius			RFAulna			LFAsuperior			LFAradius			LFAulna		
		X1	Y1	Z1	X2	Y2	Z2	X3	Y3	Z3	X4	Y4	Z4	X5	Y5	Z5	X6	Y6	Z6	X7	Y7	Z7	X8	Y8	Z8	X9	Y9	Z9	X10	Y10	Z10	X11	Y11	Z11	X12	Y12	Z12	X13	Y13	Z13	X14	Y14	Z14	X15	Y15	Z15	X16	Y16	Z16	X17	Y17	Z17	X18	Y18	Z18	X19	Y19	Z19	X20	Y20	Z20	X21	Y21	Z21	X22	Y22	Z22	X23	Y23	Z23	X24	Y24	Z24	X25	Y25	Z25	X26	Y26	Z26	X27	Y27	Z27	X28	Y28	Z28	X29	Y29	Z29	X30	Y30	Z30	X31	Y31	Z31	X32	Y32	Z32	X33	Y33	Z33	X34	Y34	Z34	X35	Y35	Z35	X36	Y36	Z36	X37	Y37	Z37	X38	Y38	Z38	X39	Y39	Z39	X40	Y40	Z40	X41	Y41	Z41	X42	Y42	Z42	X43	Y43	Z43	X44	Y44	Z44	X45	Y45	Z45	

68	  0.680000	945.489197	1069.435979	-439.262215	933.572424	1090.826725	-210.076284	783.237935	1127.484078	-382.040732	777.349869	1126.236327	-292.176117	927.929350	846.464350	-168.006146	1032.389380	830.486995	-178.383417	1021.635220	710.343016	-193.634741	770.416918	881.693409	-489.849088	791.648312	753.110327	-470.603753	699.759207	684.762586	-459.440861	1129.982110	491.095775	-233.255030	1084.440785	433.563471	-196.310451	1105.500668	309.258937	-245.669069	1062.021014	192.795340	-237.737439	1091.357638	220.201485	-313.400747	593.752792	468.473240	-417.137003	460.008223	462.340616	-427.362287	440.407666	351.853715	-385.062389	1010.099961	174.679503	-310.439955	1227.937749	144.676394	-263.202448	1151.379436	118.666820	-203.278117	287.378720	351.828219	-324.906419	347.012188	134.125287	-329.094520	290.789125	172.598087	-389.033791	922.888646	1594.842625	-479.864147	857.107073	1561.852405	-175.364303	959.757482	1513.107951	-290.883837	852.734359	1598.687722	-334.555660	850.318932	1550.148657	-514.897790	740.668416	1454.804158	-124.225797	669.110396	1433.989258	-187.183945	627.840390	1391.045666	-151.768353	594.282883	1330.707781	-123.625487	613.055228	1309.783139	-209.905942	885.202513	1457.719966	-568.203538	832.796688	1370.106505	-565.300411	875.839484	1326.570420	-608.095190	901.743937	1249.086764	-617.306130	838.319365	1236.178329	-545.965166	630.181649	1259.795559	-112.770595	822.926379	1223.382456	-86.634299	796.231684	1161.626887	-72.908648	956.997376	1249.023931	-536.075065	1012.991949	1386.216562	-441.545936	1052.201545	1331.285712	-430.152493	
69	  0.690000	946.088146	1072.189172	-441.097468	934.826379	1091.546791	-211.754128	783.186049	1127.682356	-383.055235	777.597351	1126.174752	-293.017037	924.763082	844.016074	-168.449059	1028.463239	822.247663	-178.328146	1012.010320	702.335931	-192.672482	776.357219	879.875875	-490.666106	798.308899	752.381159	-468.356682	706.726803	683.256312	-458.859401	1128.911924	483.861863	-234.405064	1088.110318	422.736931	-197.996216	1120.524612	301.143395	-248.345732	1087.264830	181.273152	-241.054964	1113.921724	212.145556	-316.750256	593.614058	471.830531	-416.896052	459.121820	476.699933	-426.991150	430.936147	367.856887	-386.160644	1035.850826	161.393423	-312.787180	1256.225553	145.675209	-270.977889	1182.887108	111.780324	-209.822562	275.850117	378.117871	-327.134634	323.639471	158.497396	-332.647834	271.261952	199.582634	-393.336006	923.907815	1597.220084	-477.835511	857.731901	1562.511367	-173.736407	960.090985	1514.431129	-289.497974	853.130785	1600.454463	-332.578762	851.471118	1552.715536	-513.458529	740.835869	1455.070529	-123.827905	669.941609	1434.856357	-187.932230	628.360563	1391.321557	-153.777172	594.526250	1330.751370	-126.706507	614.800376	1308.997772	-211.931496	886.131492	1460.891630	-567.096490	833.957585	1373.258212	-565.727486	877.497119	1330.107498	-608.788295	903.021586	1252.458857	-618.407079	838.586195	1239.276066	-547.772335	630.585902	1260.003892	-115.345351	823.353783	1224.659697	-86.203489	796.637957	1162.788547	-73.411619	957.466733	1250.905687	-536.550030	1014.031396	1386.701845	-439.409414	1052.030963	1330.701671	-428.540646	
70	  0.700000	946.737443	1073.951421	-442.562974	936.015043	1091.672839	-213.029498	782.973120	1126.324166	-383.938656	777.740180	1124.737606	-294.064740	922.402196	841.038555	-167.870843	1024.296571	813.191376	-178.363349	1002.247617	693.925709	-192.017424	782.083317	877.139573	-490.573686	805.117761	750.499586	-466.817781	714.511250	680.330814	-457.726592	1126.128501	476.794754	-236.304053	1089.654955	413.180084	-200.075876	1131.330501	294.537187	-251.574114	1106.634220	172.402471	-244.792210	1130.972701	206.133135	-320.614125	595.815848	473.919510	-416.274504	461.598573	490.440039	-426.276423	424.639312	383.964979	-387.758293	1055.859282	150.996546	-315.872440	1277.391376	147.550369	-278.316491	1207.269419	107.332638	-216.336956	268.291694	404.617232	-329.391549	303.982406	183.200382	-338.497422	255.708961	228.183761	-399.586920	925.264392	1598.469941	-475.866250	858.920600	1562.113675	-172.156676	960.500203	1514.518800	-288.333862	853.678347	1601.335634	-330.598009	852.711227	1554.502954	-511.959518	741.766199	1453.958576	-122.941043	671.210333	1434.422996	-187.781816	629.652190	1390.151557	-154.710881	595.716527	1329.193853	-128.608373	617.409277	1307.086454	-213.566040	886.891817	1463.184621	-566.160655	834.480478	1375.893476	-566.237026	878.173901	1333.026522	-609.652730	903.025564	1255.176912	-620.038419	837.967539	1241.785720	-549.930167	632.009538	1258.597720	-116.942573	824.835663	1224.188490	-85.417253	798.174482	1162.127463	-73.729224	957.174150	1251.069465	-537.885868	1015.927063	1384.324326	-438.211527	1052.469640	1326.977829	-428.041832	
71	  0.710000	947.372819	1074.271868	-443.714789	937.154207	1091.347492	-213.846278	783.060684	1123.679965	-384.787454	777.956573	1122.169653	-295.126893	919.989740	837.011883	-166.413996	1019.420211	803.568652	-178.519029	993.073980	685.710444	-192.240662	786.764504	873.752266	-489.755243	811.792692	747.438210	-466.261655	722.805395	675.903947	-456.205423	1121.894840	470.310851	-238.572414	1088.971771	404.951005	-202.492839	1137.347826	289.094097	-255.152770	1118.970319	165.636539	-249.102607	1141.770986	201.402787	-324.640756	600.486496	474.682183	-415.610806	467.675681	502.787250	-425.603378	422.091126	399.585316	-389.815441	1069.184045	143.016564	-320.394894	1290.738755	149.184122	-284.402203	1223.048396	104.410575	-222.728884	265.970533	430.807395	-331.358227	288.181294	207.804437	-346.513502	244.282742	257.845522	-407.163106	926.898460	1598.494655	-473.882029	860.578053	1560.568142	-170.707399	960.981542	1513.191038	-287.427744	854.387004	1600.951348	-328.809851	854.017104	1555.452177	-510.392589	743.301813	1451.464712	-121.699287	672.729809	1432.572732	-186.696683	631.543375	1387.426407	-154.461278	597.789257	1325.976083	-129.178494	620.900036	1306.100888	-216.970208	887.562841	1464.642127	-565.495484	834.381135	1377.984451	-566.827777	877.891442	1335.270512	-610.707394	901.765154	1257.243219	-622.110505	836.635353	1243.643652	-552.421073	634.356317	1255.515101	-117.466270	827.356127	1222.016322	-84.527687	800.843158	1159.690997	-74.038123	956.094934	1249.620669	-540.133997	1018.379544	1379.049035	-437.906116	1053.484837	1320.389188	-428.740069	
